<?xml version="1.0" encoding="iso-8859-1"?>
<!-- Uploaded to: SVG Repo, www.svgrepo.com, Generator: SVG Repo Mixer Tools -->
<svg height="6rem" width="6rem" version="1.1" id="Layer_1" xmlns="http://www.w3.org/2000/svg" xmlns:xlink="http://www.w3.org/1999/xlink" 
	 viewBox="0 0 392.533 392.533" xml:space="preserve">
<path style="fill:#FFFFFF;" d="M185.568,21.463c-19.329,0-35.103,15.774-35.103,35.103v135.305c0,4.073-2.263,7.822-5.883,9.632
	c-33.487,17.325-52.234,52.752-47.838,90.246c4.784,40.663,37.818,73.503,78.481,78.028c27.41,3.103,54.238-6.335,73.568-25.665
	c16.937-16.937,26.182-39.305,26.182-63.224c0-33.552-18.554-64-48.42-79.451c-3.62-1.875-5.883-5.624-5.883-9.632V56.63
	C220.671,37.236,204.897,21.463,185.568,21.463z"/>
<path style="fill:#56ACE0;" d="M185.568,235.119c-25.277,0-45.834,20.558-45.834,45.834c0,25.277,20.558,45.834,45.834,45.834
	s45.834-20.558,45.834-45.834C231.402,255.677,210.844,235.119,185.568,235.119z"/>
<g>
	<path style="fill:#194F82;" d="M196.493,214.562V59.927c0-6.012-4.848-10.925-10.925-10.925c-6.012,0-10.925,4.848-10.925,10.925
		v154.634c-32.129,5.236-56.695,33.099-56.695,66.715c0,37.301,30.384,67.62,67.62,67.62s67.62-30.384,67.62-67.62
		C253.188,247.725,228.622,219.863,196.493,214.562z M185.568,327.111c-25.277,0-45.834-20.558-45.834-45.834
		s20.558-45.834,45.834-45.834s45.834,20.558,45.834,45.834S210.844,327.111,185.568,327.111z"/>
	<path style="fill:#194F82;" d="M273.81,45.576h11.636c6.012,0,10.925-4.848,10.925-10.925c0-6.012-4.848-10.925-10.925-10.925
		H273.81c-6.012,0-10.925,4.848-10.925,10.925C262.949,40.727,267.798,45.576,273.81,45.576z"/>
	<path style="fill:#194F82;" d="M273.81,89.083h33.487c6.012,0,10.925-4.848,10.925-10.925c0-6.012-4.848-10.99-10.925-10.99H273.81
		c-6.012,0-10.925,4.848-10.925,10.925C262.949,84.17,267.798,89.083,273.81,89.083z"/>
	<path style="fill:#194F82;" d="M273.81,132.525h11.636c6.012,0,10.925-4.848,10.925-10.925c0-6.012-4.848-10.925-10.925-10.925
		H273.81c-6.012,0-10.925,4.848-10.925,10.925C262.949,127.677,267.798,132.525,273.81,132.525z"/>
	<path style="fill:#194F82;" d="M307.297,154.246H273.81c-6.012,0-10.925,4.848-10.925,10.925c0,6.012,4.848,10.925,10.925,10.925
		h33.487c6.012,0,10.925-4.848,10.925-10.925C318.158,159.095,313.309,154.246,307.297,154.246z"/>
	<path style="fill:#194F82;" d="M242.457,185.729V56.889C242.457,25.535,216.986,0,185.568,0l0,0l0,0
		c-31.354,0-56.889,25.471-56.889,56.889v128.905c-33.681,20.04-54.368,56.048-54.368,95.483
		c0,66.521,55.014,111.257,111.257,111.257l0,0l0,0c56.178,0,111.257-44.735,111.257-111.257
		C296.824,241.778,276.137,205.77,242.457,185.729z M185.568,370.747c-49.519,0-89.277-40.792-89.471-89.471
		c0-33.551,18.554-64,48.42-79.451c3.62-1.875,5.883-5.624,5.883-9.632V56.889c0-19.329,15.774-35.103,35.103-35.103l0,0l0,0
		c19.329,0,35.103,15.774,35.103,35.103v135.305c0,4.073,2.263,7.822,5.883,9.632c29.931,15.451,48.42,45.899,48.42,79.451
		C274.715,329.956,235.087,370.747,185.568,370.747z"/>
</g>
</svg>